<svg width="116" height="117" viewBox="0 0 116 117" fill="none" xmlns="http://www.w3.org/2000/svg">
<mask id="mask0_49_180" style="mask-type:alpha" maskUnits="userSpaceOnUse" x="0" y="0" width="116" height="117">
<rect y="0.899902" width="115.2" height="115.2" fill="white"/>
</mask>
<g mask="url(#mask0_49_180)">
<path d="M31.1998 96.9001C23.8398 96.9001 17.5998 94.3401 12.4798 89.2201C7.3598 84.1001 4.7998 77.8601 4.7998 70.5001C4.7998 64.2601 6.7398 58.7601 10.6198 54.0001C14.4998 49.2401 19.3598 46.1801 25.1998 44.8201C27.1998 37.6201 31.1598 31.7001 37.0798 27.0601C42.9998 22.4201 49.8398 20.1001 57.5998 20.1001C67.1198 20.1001 75.0998 23.4001 81.5398 30.0001C87.9798 36.6001 91.1998 44.5001 91.1998 53.7001C97.1998 54.3401 101.9 56.8201 105.3 61.1401C108.7 65.4601 110.4 70.1401 110.4 75.1801C110.4 81.1801 108.3 86.3001 104.1 90.5401C99.8998 94.7801 94.7998 96.9001 88.7998 96.9001H31.1998ZM31.1998 87.3001H88.7998C92.1598 87.3001 94.9998 86.1401 97.3198 83.8201C99.6398 81.5001 100.8 78.6601 100.8 75.3001C100.8 71.9401 99.6398 69.1001 97.3198 66.7801C94.9998 64.4601 92.1598 63.3001 88.7998 63.3001H81.5998V53.7001C81.5998 47.0601 79.2598 41.4001 74.5798 36.7201C69.8998 32.0401 64.2398 29.7001 57.5998 29.7001C52.5598 29.7001 48.0798 31.0801 44.1598 33.8401C40.2398 36.6001 37.3598 40.1401 35.5198 44.4601C41.7598 45.5001 46.9998 48.4401 51.2398 53.2801C55.4798 58.1201 57.5998 63.8601 57.5998 70.5001H47.9998C47.9998 65.8601 46.3598 61.9001 43.0798 58.6201C39.7998 55.3401 35.8398 53.7001 31.1998 53.7001C26.5598 53.7001 22.5998 55.3401 19.3198 58.6201C16.0398 61.9001 14.3998 65.8601 14.3998 70.5001C14.3998 75.1401 16.0398 79.1001 19.3198 82.3801C22.5998 85.6601 26.5598 87.3001 31.1998 87.3001Z" fill="white"/>
</g>
</svg>
